# File created by Blade
# Date/Time:  Tue Sep 30 19:31:45 2014
#---------------------------------------------------------
:version 1.10
:name HOM
:units
  mass 1.0
  length 1.000000
  angle deg
:documentation
     Acclaim Skeleton File
:root
   axis xyz
   order TX TY TZ RX RY RZ
   position 0.000000 0.000000 0.000000
   orientation 0 0 0
:bonedata
   begin
      id 1
      name Spine_dum
      direction 0.000000 1.000000 0.000000
      length 3.241213
      axis 0.0 0.0 0.0 xyz
   end
   begin
      id 2
      name LeftUpLeg_dum
      direction 1.000000 0.000000 0.000000
      length 3.434019
      axis 0.0 0.0 0.0 xyz
   end
   begin
      id 3
      name RightUpLeg_dum
      direction -1.000000 0.000000 0.000000
      length 3.434019
      axis 0.0 0.0 0.0 xyz
   end
   begin
      id 4
      name Spine
      direction 0.000000 1.000000 0.000000
      length 0.000000
      axis 0.0 0.0 0.0 xyz
      dof rx ry rz
   end
   begin
      id 5
      name Spine_dum1
      direction 0.000000 1.000000 0.000000
      length 18.382958
      axis 0.0 0.0 0.0 xyz
   end
   begin
      id 6
      name Spine_dum2
      direction 0.000000 1.000000 0.000000
      length 12.828261
      axis 0.0 0.0 0.0 xyz
   end
   begin
      id 7
      name Spine_dum3
      direction 0.000000 1.000000 0.000000
      length 12.828261
      axis 0.0 0.0 0.0 xyz
   end
   begin
      id 8
      name Head
      direction 0.000000 1.000000 0.000000
      length 4.527550
      axis 0.0 0.0 0.0 xyz
      dof rx ry rz
   end
   begin
      id 9
      name LeftShoulder
      direction 1.000000 0.000000 0.000000
      length 7.748055
      axis 0.0 0.0 -90.0 xyz
      dof rx ry rz
   end
   begin
      id 10
      name LeftArm
      direction 1.000000 0.000000 0.000000
      length 10.635614
      axis 0.0 0.0 -90.0 xyz
      dof rx ry rz
   end
   begin
      id 11
      name LeftForeArm
      direction 1.000000 0.000000 0.000000
      length 8.346755
      axis 0.0 0.0 -90.0 xyz
      dof ry rz rx
   end
   begin
      id 12
      name LeftHand
      direction 0.000000 0.000000 0.000000
      length 0.000000
      axis 0.0 0.0 -90.0 xyz
      dof rx ry rz
   end
   begin
      id 13
      name LeftHand_dum1
      direction 0.000000 0.000000 0.000000
      length 0.000000
      axis 0.0 0.0 -90.0 xyz
   end
   begin
      id 14
      name LeftHand_dum2
      direction 1.000000 0.000000 0.000000
      length 3.937000
      axis 0.0 0.0 -90.0 xyz
   end
   begin
      id 15
      name LeftHandThumb1
      direction 0.000000 0.000000 1.000000
      length 3.937000
      axis 0.0 0.0 -90.0 xyz
      dof rx rz ry
   end
   begin
      id 16
      name RightShoulder
      direction -1.000000 0.000000 0.000000
      length 7.748055
      axis 0.0 0.0 90.0 xyz
      dof rx ry rz
   end
   begin
      id 17
      name RightArm
      direction -1.000000 0.000000 0.000000
      length 10.635614
      axis 0.0 0.0 90.0 xyz
      dof rx ry rz
   end
   begin
      id 18
      name RightForeArm
      direction -1.000000 0.000000 0.000000
      length 8.346755
      axis 0.0 0.0 90.0 xyz
      dof ry rz rx
   end
   begin
      id 19
      name RightHand
      direction 0.000000 0.000000 0.000000
      length 0.000000
      axis 0.0 0.0 90.0 xyz
      dof rx ry rz
   end
   begin
      id 20
      name RightHand_dum1
      direction 0.000000 0.000000 0.000000
      length 0.000000
      axis 0.0 0.0 90.0 xyz
   end
   begin
      id 21
      name RightHand_dum2
      direction -1.000000 0.000000 0.000000
      length 3.937000
      axis 0.0 0.0 90.0 xyz
   end
   begin
      id 22
      name RightHandThumb1
      direction 0.000000 0.000000 1.000000
      length 3.937000
      axis 0.0 0.0 90.0 xyz
      dof rx rz ry
   end
   begin
      id 23
      name LeftUpLeg
      direction 0.000000 -1.000000 0.000000
      length 15.713025
      axis 0.0 0.0 0.0 xyz
      dof rx ry rz
   end
   begin
      id 24
      name LeftLeg
      direction 0.000000 -1.000000 0.000000
      length 14.435119
      axis 0.0 0.0 0.0 xyz
      dof rx ry rz
   end
   begin
      id 25
      name LeftFoot
      direction 0.000000 -0.258819 0.965926
      length 4.938895
      axis 15.0 0.0 0.0 xyz
      dof rx ry rz
   end
   begin
      id 26
      name LeftToeBase
      direction 0.000000 0.000000 1.000000
      length 2.952750
      axis 0.0 0.0 0.0 xyz
      dof rx ry rz
   end
   begin
      id 27
      name RightUpLeg
      direction 0.000000 -1.000000 0.000000
      length 15.713025
      axis 0.0 0.0 0.0 xyz
      dof rx ry rz
   end
   begin
      id 28
      name RightLeg
      direction 0.000000 -1.000000 0.000000
      length 14.435119
      axis 0.0 0.0 0.0 xyz
      dof rx ry rz
   end
   begin
      id 29
      name RightFoot
      direction 0.000000 -0.258819 0.965926
      length 4.938895
      axis 15.0 0.0 0.0 xyz
      dof rx ry rz
   end
   begin
      id 30
      name RightToeBase
      direction 0.000000 0.000000 1.000000
      length 2.952750
      axis 0.0 0.0 0.0 xyz
      dof rx ry rz
   end
:hierarchy
   begin
      root Spine_dum LeftUpLeg_dum RightUpLeg_dum
      Spine_dum Spine
      LeftUpLeg_dum LeftUpLeg
      RightUpLeg_dum RightUpLeg
      Spine Spine_dum1 Spine_dum2 Spine_dum3
      Spine_dum1 Head
      Spine_dum2 LeftShoulder
      Spine_dum3 RightShoulder
      LeftShoulder LeftArm
      LeftArm LeftForeArm
      LeftForeArm LeftHand
      LeftHand LeftHand_dum1 LeftHand_dum2
      LeftHand_dum1 LeftHandThumb1
      RightShoulder RightArm
      RightArm RightForeArm
      RightForeArm RightHand
      RightHand RightHand_dum1 RightHand_dum2
      RightHand_dum1 RightHandThumb1
      LeftUpLeg LeftLeg
      LeftLeg LeftFoot
      LeftFoot LeftToeBase
      RightUpLeg RightLeg
      RightLeg RightFoot
      RightFoot RightToeBase
   end

# File created by Blade
# Date/Time:  Mon Sep 22 19:00:17 2014
# Frame Rate: 120.000 fps
#------------------------------------------------------
:FULLY-SPECIFIED
:DEGREES
1393
root -0.655300 32.785076 -3.708265 39.246489 -2.492833 0.525362
Spine -45.201016 -1.848344 -0.772636
Head 11.936671 -13.296860 -21.523655
LeftShoulder -7.691974 44.708958 11.550931
LeftArm 72.056273 34.747443 -47.947734
LeftForeArm 8.184939 -0.000000 9.237447
LeftHand -18.636546 -0.000000 -8.014781
LeftHandThumb1 -26.253704 0.000000 33.147579
RightShoulder -20.106960 -7.494541 -43.796451
RightArm 120.924052 37.656615 129.245877
RightForeArm 85.036325 -0.000000 143.735268
RightHand 14.078470 -0.000000 26.849254
RightHandThumb1 -24.326973 -0.000000 -32.862282
LeftUpLeg -33.194768 7.968034 -3.165806
LeftLeg -0.410524 -0.000000 0.000000
LeftFoot -2.591262 1.292150 -2.838951
LeftToeBase 1.720388 -0.000000 -0.000000
RightUpLeg -34.149293 -9.480906 4.229530
RightLeg -2.576012 -0.000000 0.000000
RightFoot -4.731473 -3.311182 18.737438
RightToeBase 16.006971 -0.000000 -0.000000
1394
root -0.659148 32.785406 -3.706303 39.254725 -2.417516 0.521121
Spine -45.188209 -1.861991 -0.783243
Head 11.827054 -13.475748 -21.437191
LeftShoulder -7.669961 44.694982 11.576434
LeftArm 72.056014 34.755932 -47.922134
LeftForeArm 8.170141 -0.000000 9.205732
LeftHand -18.667597 -0.000000 -7.894056
LeftHandThumb1 -26.253704 0.000000 33.147579
RightShoulder -19.976526 -7.422405 -43.845003
RightArm 120.952216 37.717645 129.409176
RightForeArm 85.268211 -0.000000 142.851987
RightHand 14.398647 -0.000000 26.511680
RightHandThumb1 -24.326973 -0.000000 -32.862282
LeftUpLeg -33.206858 7.944051 -3.128929
LeftLeg -0.412402 -0.000000 0.000000
LeftFoot -2.580247 1.259322 -2.844827
LeftToeBase 1.684357 -0.000000 -0.000000
RightUpLeg -34.147863 -9.523297 4.275706
RightLeg -2.575154 -0.000000 0.000000
RightFoot -4.721476 -3.328664 18.729463
RightToeBase 15.956325 -0.000000 -0.000000
1395
root -0.662101 32.785820 -3.704563 39.258607 -2.383460 0.519446
Spine -45.169195 -1.860594 -0.796346
Head 11.717004 -13.585705 -21.353207
LeftShoulder -7.683816 44.683155 11.562497
LeftArm 72.051614 34.764405 -47.880785
LeftForeArm 8.188047 -0.000000 9.182986
LeftHand -18.715883 -0.000000 -8.020718
LeftHandThumb1 -26.253704 0.000000 33.147579
RightShoulder -19.884472 -7.609850 -43.855058
RightArm 121.170056 37.565062 129.753053
RightForeArm 85.628431 0.000000 141.966222
RightHand 14.469942 -0.000000 26.030670
RightHandThumb1 -24.326973 -0.000000 -32.862282
LeftUpLeg -33.210990 7.962645 -3.131021
LeftLeg -0.419383 -0.000000 0.000000
LeftFoot -2.562159 1.212412 -2.852149
LeftToeBase 1.663811 -0.000000 -0.000000
RightUpLeg -34.142139 -9.508062 4.273878
RightLeg -2.572250 -0.000000 0.000000
RightFoot -4.748405 -3.349777 18.765065
RightToeBase 16.031576 -0.000000 -0.000000
1396
root -0.665533 32.785771 -3.701319 39.263686 -2.325431 0.522476
Spine -45.156784 -1.864074 -0.818308
Head 11.607069 -13.719647 -21.249512
LeftShoulder -7.669732 44.667176 11.577918
LeftArm 72.087297 34.788548 -47.804030
LeftForeArm 8.164750 -0.000000 9.121776
LeftHand -18.721298 -0.000000 -7.972121
LeftHandThumb1 -26.253704 0.000000 33.147579
RightShoulder -19.785994 -7.681634 -43.886246
RightArm 121.183170 37.590327 129.807679
RightForeArm 85.735141 0.000000 140.968610
RightHand 14.908188 0.000000 25.601221
RightHandThumb1 -24.326973 -0.000000 -32.862282
LeftUpLeg -33.213905 7.952956 -3.112098
LeftLeg -0.420806 -0.000000 0.000000
LeftFoot -2.548348 1.164805 -2.765696
LeftToeBase 1.646737 -0.000000 -0.000000
RightUpLeg -34.125662 -9.544751 4.307779
RightLeg -2.596858 -0.000000 0.000000
RightFoot -4.734903 -3.358997 18.768058
RightToeBase 15.969284 -0.000000 -0.000000
1397
root -0.669623 32.785550 -3.699187 39.268238 -2.252630 0.523973
Spine -45.139627 -1.871369 -0.840137
Head 11.499940 -13.870575 -21.131025
LeftShoulder -7.652305 44.668523 11.603499
LeftArm 72.164609 34.802268 -47.696798
LeftForeArm 8.082430 0.000000 9.052925
LeftHand -18.676365 -0.000000 -8.039016
LeftHandThumb1 -26.253704 0.000000 33.147579
RightShoulder -19.700233 -7.718833 -43.923686
RightArm 121.198867 37.652851 129.907532
RightForeArm 85.936016 -0.000000 139.872111
RightHand 15.015243 0.000000 25.269944
RightHandThumb1 -24.326973 -0.000000 -32.862282
LeftUpLeg -33.221175 7.912489 -3.076758
LeftLeg -0.425734 -0.000000 0.000000
LeftFoot -2.556996 1.169739 -2.846678
LeftToeBase 1.678089 -0.000000 -0.000000
RightUpLeg -34.119194 -9.576963 4.342986
RightLeg -2.596856 -0.000000 0.000000
RightFoot -4.755872 -3.388134 18.746704
RightToeBase 16.006434 -0.000000 -0.000000
1398
root -0.672690 32.785222 -3.693139 39.268364 -2.221653 0.519724
Spine -45.130196 -1.852340 -0.890411
Head 11.410082 -14.066064 -20.987871
LeftShoulder -7.654492 44.663390 11.632696
LeftArm 72.224949 34.833010 -47.631603
LeftForeArm 8.070211 -0.000000 8.965199
LeftHand -18.645250 -0.000000 -8.037702
LeftHandThumb1 -26.253704 0.000000 33.147579
RightShoulder -19.565834 -7.727615 -43.977972
RightArm 121.284525 37.718689 130.112934
RightForeArm 85.894521 -0.000000 138.718416
RightHand 15.209766 -0.000000 24.606697
RightHandThumb1 -24.326973 -0.000000 -32.862282
LeftUpLeg -33.211392 7.938702 -3.077877
LeftLeg -0.438037 -0.000000 0.000000
LeftFoot -2.550472 1.127345 -2.825435
LeftToeBase 1.642999 -0.000000 -0.000000
RightUpLeg -34.111788 -9.578046 4.350505
RightLeg -2.578963 -0.000000 0.000000
RightFoot -4.776848 -3.385561 18.754013
RightToeBase 15.987072 -0.000000 -0.000000
1399
root -0.676246 32.784966 -3.689505 39.277378 -2.175441 0.520025
Spine -45.121138 -1.824088 -0.947377
Head 11.309411 -14.252802 -20.844886
LeftShoulder -7.626836 44.644750 11.666853
LeftArm 72.276022 34.853969 -47.557522
LeftForeArm 8.049519 -0.000000 8.890135
LeftHand -18.646759 -0.000000 -8.104199
LeftHandThumb1 -26.253704 0.000000 33.147579
RightShoulder -19.477354 -7.759739 -44.032618
RightArm 121.262746 37.871902 130.153228
RightForeArm 86.031604 0.000000 137.529837
RightHand 15.333658 -0.000000 24.222446
RightHandThumb1 -24.326973 -0.000000 -32.862282
LeftUpLeg -33.211971 7.929655 -3.055778
LeftLeg -0.448257 -0.000000 0.000000
LeftFoot -2.532088 1.087565 -2.770342
LeftToeBase 1.622776 -0.000000 -0.000000
RightUpLeg -34.107470 -9.581215 4.362301
RightLeg -2.577800 -0.000000 0.000000
RightFoot -4.793708 -3.409136 18.756109
RightToeBase 15.965291 -0.000000 -0.000000
1400
root -0.679018 32.785405 -3.685899 39.280525 -2.123497 0.520599
Spine -45.116305 -1.800870 -0.987540
Head 11.241398 -14.517929 -20.788757
LeftShoulder -7.581673 44.670759 11.693636
LeftArm 72.294853 34.826318 -47.542768
LeftForeArm 8.004935 -0.000000 8.836326
LeftHand -18.698751 -0.000000 -8.147140
LeftHandThumb1 -26.253704 0.000000 33.147579
RightShoulder -19.386236 -7.776777 -44.072429
RightArm 121.191226 38.029030 130.027650
RightForeArm 86.127235 0.000000 136.247156
RightHand 15.532209 0.000000 24.207880
RightHandThumb1 -24.326973 -0.000000 -32.862282
LeftUpLeg -33.216203 7.922982 -3.046971
LeftLeg -0.454529 -0.000000 0.000000
LeftFoot -2.526620 1.076366 -2.823716
LeftToeBase 1.649553 -0.000000 -0.000000
RightUpLeg -34.095430 -9.594845 4.379314
RightLeg -2.583078 -0.000000 0.000000
RightFoot -4.806654 -3.432883 18.799715
RightToeBase 15.987988 -0.000000 -0.000000
1401
root -0.682492 32.785563 -3.682454 39.290467 -2.072596 0.520374
Spine -45.086488 -1.774868 -1.021500
Head 11.081635 -14.473035 -20.548153
LeftShoulder -7.621654 44.623115 11.666735
LeftArm 72.309732 34.853694 -47.484706
LeftForeArm 8.008642 -0.000000 8.778181
LeftHand -18.679630 0.000000 -8.184495
LeftHandThumb1 -26.253704 0.000000 33.147579
RightShoulder -19.338612 -7.741358 -44.142607
RightArm 121.088118 38.240064 129.927797
RightForeArm 85.960519 0.000000 134.869617
RightHand 15.551041 -0.000000 23.664628
RightHandThumb1 -24.326973 -0.000000 -32.862282
LeftUpLeg -33.225680 7.904189 -3.018820
LeftLeg -0.447353 -0.000000 0.000000
LeftFoot -2.519832 1.047805 -2.751525
LeftToeBase 1.617272 -0.000000 -0.000000
RightUpLeg -34.093121 -9.604528 4.396976
RightLeg -2.580890 -0.000000 0.000000
RightFoot -4.817386 -3.455699 18.790126
RightToeBase 15.954417 -0.000000 -0.000000
1402
root -0.685696 32.785749 -3.677624 39.301991 -2.006596 0.523987
Spine -45.097433 -1.781677 -1.053036
Head 10.963922 -14.684420 -20.414394
LeftShoulder -7.611969 44.662659 11.681534
LeftArm 72.329822 34.821625 -47.491038
LeftForeArm 7.988749 0.000000 8.714020
LeftHand -18.632026 -0.000000 -8.225501
LeftHandThumb1 -26.253704 0.000000 33.147579
RightShoulder -19.210773 -7.770364 -44.192309
RightArm 121.043499 38.459531 129.799420
RightForeArm 85.726118 0.000000 133.467863
RightHand 15.750031 -0.000000 23.295676
RightHandThumb1 -24.326973 -0.000000 -32.862282
LeftUpLeg -33.232332 7.862905 -2.983182
LeftLeg -0.450561 -0.000000 0.000000
LeftFoot -2.508014 1.033687 -2.765906
LeftToeBase 1.586248 -0.000000 -0.000000
RightUpLeg -34.084545 -9.647232 4.434447
RightLeg -2.594949 -0.000000 0.000000
RightFoot -4.815809 -3.451952 18.786771
RightToeBase 15.925353 -0.000000 -0.000000
1403
root -0.687978 32.786030 -3.673902 39.307832 -1.954237 0.524206
Spine -45.092450 -1.773919 -1.080479
Head 10.849708 -14.914518 -20.334828
LeftShoulder -7.615098 44.677216 11.685962
LeftArm 72.339175 34.824892 -47.443994
LeftForeArm 7.941005 -0.000000 8.725156
LeftHand -18.619722 -0.000000 -8.191110
LeftHandThumb1 -26.253704 0.000000 33.147579
RightShoulder -19.107276 -7.784848 -44.249312
RightArm 120.977732 38.666748 129.667545
RightForeArm 85.447611 0.000000 131.985035
RightHand 15.844422 -0.000000 22.806712
RightHandThumb1 -24.326973 -0.000000 -32.862282
LeftUpLeg -33.237585 7.847717 -2.967695
LeftLeg -0.456750 -0.000000 0.000000
LeftFoot -2.508457 1.024174 -2.808045
LeftToeBase 1.645563 -0.000000 -0.000000
RightUpLeg -34.072662 -9.645081 4.439630
RightLeg -2.601033 -0.000000 0.000000
RightFoot -4.826241 -3.505835 18.804641
RightToeBase 15.899846 -0.000000 -0.000000
